<?xml version="1.0" encoding="UTF-8"?> <svg xmlns="http://www.w3.org/2000/svg" width="288.5" height="94.664" viewBox="0 0 288.5 94.664"><defs><style>.a{fill:#0080bb;}.b{fill:#fff;}</style></defs><g transform="translate(-204.34 -141.108)"><rect class="a" width="288.5" height="94.664" transform="translate(204.34 141.108)"></rect><g transform="translate(236.027 172.401)"><path class="b" d="M413.259,169.454a3.39,3.39,0,1,1-3.358-3.3,3.323,3.323,0,0,1,3.358,3.3m-5.933,0a2.568,2.568,0,0,0,2.576,2.634,2.527,2.527,0,0,0,2.514-2.614,2.547,2.547,0,1,0-5.09-.02m2.032,1.708h-.767v-3.3a9.061,9.061,0,0,1,1.268-.1,1.743,1.743,0,0,1,1.126.263.826.826,0,0,1,.342.7.849.849,0,0,1-.682.783v.042c.32.1.482.362.583.8a2.821,2.821,0,0,0,.242.8h-.806a2.53,2.53,0,0,1-.262-.8c-.061-.341-.262-.5-.682-.5h-.362Zm.019-1.85h.362c.421,0,.763-.139.763-.482,0-.3-.219-.5-.7-.5a1.878,1.878,0,0,0-.421.041Z" transform="translate(-180.307 -165.497)"></path><path class="b" d="M240.6,186.769h-6.056v9.8H229.18V166.049h12.033c7.114,0,11.6,4.013,11.6,10.246,0,6.887-5.493,10.474-12.213,10.474m.179-15.832h-6.234v10.991h6.234c4.05,0,6.586-2.223,6.586-5.5,0-3.624-2.578-5.493-6.586-5.493" transform="translate(-229.18 -165.526)"></path><path class="b" d="M273.3,196.57l-7.5-10.64h-6.716v10.64h-5.364V166.049h13.6c7.022,0,11.341,3.712,11.341,9.69,0,5.058-3.011,8.1-7.278,9.278l8.233,11.554Zm-6.408-25.633h-7.806v10.243h7.845c3.842,0,6.284-2.007,6.284-5.147,0-3.358-2.35-5.1-6.323-5.1" transform="translate(-222.414 -165.526)"></path><path class="b" d="M280.153,166.049v30.522h22.833v-4.785H285.509v-8.207h15.305v-4.8H285.509v-7.932h17.279v-4.8Z" transform="translate(-215.129 -165.526)"></path><path class="b" d="M316.982,178.957c6.448,1.577,9.8,3.882,9.8,8.982,0,5.768-4.5,9.168-10.89,9.168a18.832,18.832,0,0,1-12.736-4.877l3.224-3.842c2.921,2.527,5.844,3.962,9.638,3.962,3.31,0,5.4-1.519,5.4-3.877,0-2.23-1.216-3.4-6.883-4.715-6.5-1.564-10.158-3.486-10.158-9.153,0-5.319,4.361-8.9,10.411-8.9a16.936,16.936,0,0,1,11.084,3.84l-2.879,4.053a13.839,13.839,0,0,0-8.285-3.145c-3.136,0-4.966,1.623-4.966,3.665,0,2.4,1.393,3.448,7.241,4.836" transform="translate(-208.788 -165.62)"></path><rect class="b" width="5.365" height="30.522" transform="translate(126.811 0.525)"></rect><path class="b" d="M352.272,196.57H340.9V166.049h11.376c9.586,0,16.222,6.585,16.222,15.222s-6.636,15.3-16.222,15.3m0-25.633h-6.016V191.7h6.016c6.415,0,10.6-4.326,10.6-10.346s-4.18-10.413-10.6-10.413" transform="translate(-198.385 -165.526)"></path><rect class="b" width="5.356" height="30.522" transform="translate(179.097 0.525)"></rect><path class="b" d="M396.727,197.2a15.784,15.784,0,1,1,16.008-15.821A15.5,15.5,0,0,1,396.727,197.2m0-26.642c-6.058,0-10.289,4.855-10.289,10.821s4.317,10.893,10.377,10.893,10.3-4.833,10.3-10.812-4.324-10.9-10.389-10.9" transform="translate(-187.379 -165.639)"></path><path class="b" d="M396.727,197.2a15.784,15.784,0,1,1,16.008-15.821A15.5,15.5,0,0,1,396.727,197.2m0-26.642c-6.058,0-10.289,4.855-10.289,10.821s4.317,10.893,10.377,10.893,10.3-4.833,10.3-10.812-4.324-10.9-10.389-10.9" transform="translate(-187.379 -165.639)"></path></g></g></svg> 